<svg xmlns="http://www.w3.org/2000/svg" viewBox="0 0 240.3 48"><defs><style>.cls-1{fill:#4b4b4b;}.cls-2{fill:#4525f2;}.cls-3{fill:#feb336;}.cls-4{fill:#f37311;}</style></defs><g id="圖層_2" data-name="圖層 2"><g id="Layer_1" data-name="Layer 1"><path class="cls-1" d="M101.12,12.8l1.16,1.87a14.08,14.08,0,0,1-3.36,4.61,18.73,18.73,0,0,1-5.42,3.58A36.06,36.06,0,0,1,87.05,25a61.71,61.71,0,0,1-8.16,1.25l.1-3.28a40.12,40.12,0,0,0,11.18-2.09c-.62-.56-1.58-1.34-2.88-2.33L91,17.81a21.89,21.89,0,0,1,2.17,1.68,13.88,13.88,0,0,0,4.5-3.68H91.55a37.81,37.81,0,0,1-8.46,4.31l-.73-3A22.36,22.36,0,0,0,93.64,9.87l2.52,1.79L95,13Zm-3.47-10,1,1.84a14,14,0,0,1-3,3.58,20.75,20.75,0,0,1-4.58,3.2,35.76,35.76,0,0,1-5.29,2.25,51.09,51.09,0,0,1-6.5,1.6l-.08-3.12a32.16,32.16,0,0,0,7.32-1.92C86,9.72,85.09,9,83.82,8.05l3.53-.68A19.92,19.92,0,0,1,89.49,9,18.93,18.93,0,0,0,93.93,5.8H87.18a40.84,40.84,0,0,1-6.37,3.53l-.92-2.88A22.74,22.74,0,0,0,84.77,4,21.54,21.54,0,0,0,89.13.19L91.63,2l-1,1Z"/><path class="cls-1" d="M114.37,22l-3.07,1.19-1-1.32a16,16,0,0,1-4.86,4.69l-.73-3.37a8.38,8.38,0,0,0,3.42-3.57q-1.47-1.47-3.23-2.91.84-3,1.63-7.61H104l1.41-2.91h1.55l.59-6,2.72,1.49-.52,4.47,4.09.17a40.62,40.62,0,0,1-2.11,12.58A25.23,25.23,0,0,1,114.37,22Zm-3.61-12.9h-1.49c-.38,2.33-.8,4.51-1.25,6.56l1.3,1.11A31.87,31.87,0,0,0,110.76,9.06Zm17.62,9.38h-3.9a20,20,0,0,0,6,4.8l-3.33,1.7a16.16,16.16,0,0,1-3.88-4v5.83l-3.14-1.41V20.9A18.74,18.74,0,0,1,114.61,26l-1-3.23a10,10,0,0,0,2.41-1.6l2.52-2.68H113.2l1.41-2.71h5.48V14.07h-4V6.26h-2.6l1.41-2.71h1.19V.05L119,1.46V3.55h4.83V.05l3.06,1.41V3.55h2.79L128.3,6.26h-1.38v7.81h-3.69v1.66h6.56ZM123.86,6.26H119V7.67h4.83ZM119,10V11.5h4.83V10Z"/><path class="cls-1" d="M143.23,13.53h-1.71v9.84q0,1.77-.9,2.25a8.63,8.63,0,0,1-3.6.49l.68-2.47h.78a.27.27,0,0,0,.3-.3V21.47h-2.9v5.32l-2.71-1.41V13.53h-1.6V9.3h1.55V1.6h8.51V9.3h1.62v3.06h13.62l-1.41,2.15H143.23Zm-2.39-.95V11.5h-7v1.08Zm-5.42-8.7V9.3h1V5h2.85V3.88Zm3.36,12.06V14.75h-2.9v1.19Zm-2.9,3.36h2.9V18.06h-2.9Zm2.2-10h1.14V6.81h-1.14Zm14.85,14.18h4.23l-1.41,2.28H142l1.41-2.28h2.77l-1-2.22,1.65-.6h-2.6V15.37h11.09v5.29h-2.55l1.62.38ZM155.65,3v8.4H143.8V3h3v-3l2.25,1.41V3h1.16v-3l2.28,1.41V3Zm-9.49,2V6.24h1.16V5.07Zm0,3.12V9.38h1.16V8.19Zm.62,9.08v1.49h5.77V17.27Zm4.83,3.39h-4.15l1.22,2.82h1.84ZM149.06,6.24h1.16V5.07h-1.16Zm1.16,1.95h-1.16V9.38h1.16Zm2.93-1.95V5.07H152V6.24Zm0,3.14V8.19H152V9.38Z"/><path class="cls-1" d="M165.55,21.28l3.88-.7-1.22,2.79c-.76.2-2.24.53-4.42,1s-3.82.84-4.88,1.06l.78-3.14,3.26-.57V15h-4.26l1.41-2.74H163v-2h-2V9.06l-1.79,1.6L159,6.43a13.17,13.17,0,0,0,2.47-2.36A21.07,21.07,0,0,0,164.17,0l1.68,2.31-.19.35,4.72,3.44L168,7.84l-.17-.14v2.55h-2.3v2h3.93L168.07,15h-2.52Zm-6.05-5.45,2.2.82,1,4.61-2.31-.74Zm2.8-8.27h5.42A24.06,24.06,0,0,0,164.25,5,30.25,30.25,0,0,1,162.3,7.56Zm5.07,13.94-1.5-1.92.95-4.56L168.75,17Zm14.58-8,1.77,1.65a42.88,42.88,0,0,1-3.45,3,17.09,17.09,0,0,0,4.58,4.34L182,24.16a16.31,16.31,0,0,1-4.45-5.64l-.24,6.07a1.73,1.73,0,0,1-.9,1,9.22,9.22,0,0,1-3.74.49l-.84-2.91,2.74.06a.79.79,0,0,0,.41-.08.54.54,0,0,0,.11-.38v-2.2c-.84.54-2.67,1.69-5.51,3.44l-.05-3.14q2.15-1.08,5.56-3.09V13.48h-6.62l1.41-2.8h7.89l.3-1.33-7.81,0A91.54,91.54,0,0,0,172.79,0l2.33,1.81-.16.63,7,.3q-.69,3.77-1.66,7.91h4.26l-1.41,2.8Zm-12.6.89,2.73-.16,2.39,3.33-2.82.33A17,17,0,0,0,169.35,14.37Zm4.41-7.59h4.86L179,5h-4.72Zm7.84,6.7h-3.85A27.14,27.14,0,0,0,179,16.21,18.44,18.44,0,0,0,181.6,13.48Z"/><path class="cls-1" d="M210.26,10.09h-3.71a16.93,16.93,0,0,0,5.88,3.85l-2.76,1.92V25H195.89V15.86l-.57.27L194.54,15l-2.41.9v6.78c0,1.42-.37,2.36-1.09,2.82s-2.15.64-4.45.62l.6-3h1.52a.38.38,0,0,0,.46-.43V16.92l-3.39,1.14.73-3.53,2.66-.78V8.87h-3.55l1.41-3h2.14V.08l3,1.41V5.88h3.11l-1.35,3h-1.76v3.9l2-.65.24,1.3A13.44,13.44,0,0,0,199,10.09h-4.91l1.41-2.58h2l-1-2.49,1.95-.6-3.55.11.7-2.33A95.92,95.92,0,0,0,209.1.79l.27,2.52c-1.21.23-3,.47-5.26.7v3.5h.95L207,3.12l2.17,2-1.27,2.41h3.79Zm-13.06,5h11.19a19.06,19.06,0,0,1-4.28-4v4.29L201.21,14V11.44A16.15,16.15,0,0,1,197.2,15.13Zm4-7.62V4.26H199L200.15,7l-1.49.51Zm0,11.47V17.46h-2.52V19Zm-2.52,2.22v1.57h2.52V21.2ZM206.69,19V17.46h-2.77V19Zm-2.77,3.79h2.77V21.2h-2.77Z"/><path class="cls-1" d="M227.56,22.5h11.17l-1.41,2.85h-24l1.41-2.85h9.54V20.17h-8.59l1.41-2.76h7.18V14.64l3.31,1.41v1.36h9l-1.41,2.76h-7.59ZM217.1,10.28V8.11h-3V2.93H224.5l-1-2.28,3.71.35.92,1.93h9.65V8.11h-2.87v2.17h-3.2a39.78,39.78,0,0,1,5,4.71l-3.5.71-1-1.17q-9.57.76-11.74,1a17.45,17.45,0,0,0-3.63.7l.46-3.17c0,.07.45-.18,1.25-.76l2.49-2Zm17.4-4.42H217.23V7.51H234.5Zm-12.44,7,7.91-.52-1.4-1.19,1.32-.89H225.2Z"/><path class="cls-1" d="M78.56,47.64v-16h0L86.84,43.3l-1-.22,8.21-11.47h0v16H91.84V36.76L92,37.93,86.26,46h0l-5.84-8.1.39-1.07V47.64Z"/><path class="cls-1" d="M100,48a2.83,2.83,0,0,1-2-.75,2.67,2.67,0,0,1-.84-1.92V38.68h2.21v5.86a2,2,0,0,0,.39,1.12,1.48,1.48,0,0,0,1.15.46,2.08,2.08,0,0,0,1.29-.44,2.93,2.93,0,0,0,.9-1.2,4.29,4.29,0,0,0,.33-1.74V38.68h2.2v9h-2l-.17-2.08.09.35a3.66,3.66,0,0,1-.79,1.07,3.62,3.62,0,0,1-1.22.75A4.23,4.23,0,0,1,100,48Z"/><path class="cls-1" d="M108.06,31h2.2V47.64h-2.2Z"/><path class="cls-1" d="M113.48,34.75h2.21v4h2.39v1.73h-2.39v7.21h-2.21V40.43H111.9V38.7h1.58Z"/><path class="cls-1" d="M119.39,35.47a1.07,1.07,0,0,1,.41-.85,1.31,1.31,0,0,1,.87-.34,1.28,1.28,0,0,1,.88.34,1.08,1.08,0,0,1,.38.85,1,1,0,0,1-.38.85,1.32,1.32,0,0,1-.88.33,1.35,1.35,0,0,1-.87-.33A1,1,0,0,1,119.39,35.47Zm.13,3.21h2.2v9h-2.2Z"/><path class="cls-1" d="M126.14,38.68l.2,1.92-.09-.15a3.75,3.75,0,0,1,3.49-2.13,3.64,3.64,0,0,1,1.31.23,2.61,2.61,0,0,1,1,.66,2.08,2.08,0,0,1,.49,1.07l-.1.07a4.07,4.07,0,0,1,1.42-1.49,3.57,3.57,0,0,1,1.89-.54,2.87,2.87,0,0,1,2.08.75,2.61,2.61,0,0,1,.81,1.92v6.65h-2.18V41.82a2.23,2.23,0,0,0-.31-1.11,1.23,1.23,0,0,0-1-.49,2.14,2.14,0,0,0-1.36.47,3.14,3.14,0,0,0-.91,1.22,4.49,4.49,0,0,0-.34,1.6v4.13h-2.2V41.82a2,2,0,0,0-.32-1.11,1.26,1.26,0,0,0-1.05-.49,2.07,2.07,0,0,0-1.34.47,3,3,0,0,0-.89,1.23,4.1,4.1,0,0,0-.31,1.59v4.13h-2.2v-9Z"/><path class="cls-1" d="M145.38,47.85a5.43,5.43,0,0,1-2.67-.61A4.16,4.16,0,0,1,141,45.55a5,5,0,0,1-.6-2.47,4.43,4.43,0,0,1,.67-2.4A4.93,4.93,0,0,1,142.89,39a5,5,0,0,1,2.53-.64,4.36,4.36,0,0,1,3,1A5.27,5.27,0,0,1,150,42.29l-7.28,2.53-.52-1.29L148,41.44l-.45.28a3,3,0,0,0-.81-1.17,2.21,2.21,0,0,0-1.52-.5,2.57,2.57,0,0,0-2.34,1.4,3.09,3.09,0,0,0-.35,1.53,3.17,3.17,0,0,0,.37,1.57,2.76,2.76,0,0,0,1,1.06,2.86,2.86,0,0,0,1.46.38,2.91,2.91,0,0,0,1.1-.21,5.69,5.69,0,0,0,1-.54l1,1.63a6.68,6.68,0,0,1-1.53.71A5.18,5.18,0,0,1,145.38,47.85Z"/><path class="cls-1" d="M155.5,47.85a4.4,4.4,0,0,1-2.26-.59,4.07,4.07,0,0,1-1.58-1.68,5.26,5.26,0,0,1-.58-2.54,5,5,0,0,1,.62-2.55,4.18,4.18,0,0,1,1.68-1.63,4.92,4.92,0,0,1,2.38-.56,4.72,4.72,0,0,1,2,.41,3.37,3.37,0,0,1,1.44,1.17l-.06.75V31h2.18V47.64h-2.21V45.52l.24.58a5.57,5.57,0,0,1-1.63,1.25A4.67,4.67,0,0,1,155.5,47.85Zm.69-1.86a3.05,3.05,0,0,0,1.32-.26,2.66,2.66,0,0,0,1-.73,2.81,2.81,0,0,0,.57-1.13V42.08a2.42,2.42,0,0,0-.56-1.06,3,3,0,0,0-1-.72,3.27,3.27,0,0,0-1.3-.25,2.83,2.83,0,0,0-2.49,1.41,2.87,2.87,0,0,0-.4,1.54,3,3,0,0,0,1.46,2.6A2.77,2.77,0,0,0,156.19,46Z"/><path class="cls-1" d="M163.62,35.47a1,1,0,0,1,.41-.85,1.31,1.31,0,0,1,.87-.34,1.28,1.28,0,0,1,.88.34,1.11,1.11,0,0,1,.38.85,1.08,1.08,0,0,1-.38.85,1.32,1.32,0,0,1-.88.33,1.35,1.35,0,0,1-.87-.33A1,1,0,0,1,163.62,35.47Zm.13,3.21H166v9h-2.2Z"/><path class="cls-1" d="M172.28,47.85a4.92,4.92,0,0,1-2.29-.52,3.91,3.91,0,0,1-1.63-1.57,5.85,5.85,0,0,1,0-5.2,4.46,4.46,0,0,1,1.66-1.68,4.53,4.53,0,0,1,2.26-.58,3.74,3.74,0,0,1,2.1.54,4.51,4.51,0,0,1,1.3,1.27l-.15.34.21-1.77h2v9h-2.2V45.39l.24.54a2.82,2.82,0,0,1-.37.48,5.08,5.08,0,0,1-.74.65,4.12,4.12,0,0,1-1.06.57A4.07,4.07,0,0,1,172.28,47.85Zm.59-1.8a3.06,3.06,0,0,0,1.27-.25,2.57,2.57,0,0,0,.94-.73,2.73,2.73,0,0,0,.53-1.11V42.1a2.54,2.54,0,0,0-.58-1,3,3,0,0,0-1-.69,3,3,0,0,0-1.25-.26,2.76,2.76,0,0,0-1.41.38,2.83,2.83,0,0,0-1,1,3.11,3.11,0,0,0-.38,1.54,3,3,0,0,0,.39,1.52,3,3,0,0,0,1.06,1.08A2.77,2.77,0,0,0,172.87,46.05Z"/><path class="cls-1" d="M193.59,35.09a10.2,10.2,0,0,0-1.75-.73,6,6,0,0,0-1.82-.3,3,3,0,0,0-1.9.55,1.77,1.77,0,0,0-.7,1.48,1.59,1.59,0,0,0,.47,1.16,4.14,4.14,0,0,0,1.21.85c.5.25,1,.47,1.59.69a12.12,12.12,0,0,1,1.4.61,5.73,5.73,0,0,1,1.26.86,3.94,3.94,0,0,1,.9,1.27,4.67,4.67,0,0,1,.33,1.85,4.31,4.31,0,0,1-.61,2.25,4.26,4.26,0,0,1-1.76,1.59,6,6,0,0,1-2.76.59,8.14,8.14,0,0,1-1.92-.23,9.75,9.75,0,0,1-1.75-.6,9,9,0,0,1-1.48-.82l1-1.77a8.55,8.55,0,0,0,1.18.69,7.42,7.42,0,0,0,1.38.53,5.55,5.55,0,0,0,1.35.19,3.92,3.92,0,0,0,1.39-.25,2.6,2.6,0,0,0,1.14-.77,2.09,2.09,0,0,0,.44-1.38,2,2,0,0,0-.39-1.23,3.49,3.49,0,0,0-1.05-.86,9.45,9.45,0,0,0-1.4-.64c-.48-.19-1-.39-1.47-.62a7.37,7.37,0,0,1-1.39-.82,3.75,3.75,0,0,1-1-1.2,3.68,3.68,0,0,1-.4-1.77,4,4,0,0,1,.59-2.17,4.16,4.16,0,0,1,1.64-1.46,6.07,6.07,0,0,1,2.41-.6,8.53,8.53,0,0,1,2.72.39,9.92,9.92,0,0,1,2.05.92Z"/><path class="cls-1" d="M197.37,34.75h2.2v4H202v1.73h-2.39v7.21h-2.2V40.43h-1.58V38.7h1.58Z"/><path class="cls-1" d="M206.27,48a2.85,2.85,0,0,1-2-.75,2.7,2.7,0,0,1-.83-1.92V38.68h2.2v5.86a1.92,1.92,0,0,0,.4,1.12,1.44,1.44,0,0,0,1.14.46,2.08,2.08,0,0,0,1.3-.44,3,3,0,0,0,.89-1.2,4.29,4.29,0,0,0,.33-1.74V38.68h2.21v9h-2l-.17-2.08.08.35a3.62,3.62,0,0,1-2,1.82A4.17,4.17,0,0,1,206.27,48Z"/><path class="cls-1" d="M218.16,47.85a4.44,4.44,0,0,1-2.27-.59,4.14,4.14,0,0,1-1.58-1.68,5.38,5.38,0,0,1-.58-2.54,5,5,0,0,1,.62-2.55A4.31,4.31,0,0,1,216,38.86a5,5,0,0,1,2.39-.56,4.68,4.68,0,0,1,2,.41,3.37,3.37,0,0,1,1.44,1.17l-.06.75V31h2.18V47.64h-2.2V45.52l.23.58a5.65,5.65,0,0,1-1.62,1.25A4.7,4.7,0,0,1,218.16,47.85Zm.68-1.86a3.13,3.13,0,0,0,1.33-.26,2.71,2.71,0,0,0,1-.73,3,3,0,0,0,.58-1.13V42.08a2.44,2.44,0,0,0-.57-1.06,3,3,0,0,0-1-.72,3.32,3.32,0,0,0-1.31-.25,2.83,2.83,0,0,0-1.44.37,2.91,2.91,0,0,0-1.05,1A3,3,0,0,0,216,43a3,3,0,0,0,.39,1.52,3.13,3.13,0,0,0,1.06,1.08A2.77,2.77,0,0,0,218.84,46Z"/><path class="cls-1" d="M226.27,35.47a1.07,1.07,0,0,1,.41-.85,1.32,1.32,0,0,1,.88-.34,1.26,1.26,0,0,1,.87.34,1.09,1.09,0,0,1,.39.85,1.06,1.06,0,0,1-.39.85,1.3,1.3,0,0,1-.87.33,1.36,1.36,0,0,1-.88-.33A1,1,0,0,1,226.27,35.47Zm.13,3.21h2.2v9h-2.2Z"/><path class="cls-1" d="M230.38,43.06a4.59,4.59,0,0,1,2.41-4.12,5.25,5.25,0,0,1,2.59-.62,5.17,5.17,0,0,1,2.59.62,4.39,4.39,0,0,1,1.72,1.7,4.89,4.89,0,0,1,.61,2.42,5,5,0,0,1-.61,2.44A4.44,4.44,0,0,1,238,47.22a5.2,5.2,0,0,1-2.61.63,5.46,5.46,0,0,1-2.56-.58A4.39,4.39,0,0,1,231,45.62,4.89,4.89,0,0,1,230.38,43.06Zm2.22,0a3.15,3.15,0,0,0,.36,1.51,2.84,2.84,0,0,0,1,1.07,2.53,2.53,0,0,0,1.39.39,2.62,2.62,0,0,0,1.41-.39,2.71,2.71,0,0,0,1-1.07,3.14,3.14,0,0,0,.35-1.51,3.06,3.06,0,0,0-.35-1.49,2.86,2.86,0,0,0-1-1.07,2.56,2.56,0,0,0-1.41-.41,2.51,2.51,0,0,0-1.41.41,2.84,2.84,0,0,0-1,1.08A3.2,3.2,0,0,0,232.6,43.08Z"/><path class="cls-2" d="M2.18,2.72l15,9.75V35l-15,9.75A1.41,1.41,0,0,1,0,43.54V3.91A1.41,1.41,0,0,1,2.18,2.72Z"/><path class="cls-3" d="M32.7,22.54,17.19,12.47V5.34A2.83,2.83,0,0,1,20,2.51H56.79a2.82,2.82,0,0,1,2.83,2.83V42.11a2.83,2.83,0,0,1-2.83,2.83H20a2.83,2.83,0,0,1-2.83-2.83V35L32.7,24.91A1.42,1.42,0,0,0,32.7,22.54Z"/><path class="cls-4" d="M32.7,22.54a1.42,1.42,0,0,1,0,2.37L17.19,35V12.47Z"/></g></g></svg>