<svg xmlns="http://www.w3.org/2000/svg" width="40" height="40" viewBox="0 0 40 40">
  <g id="Icon" transform="translate(0 0.207)">
    <rect id="Area" width="40" height="40" transform="translate(0 -0.207)" fill="#fff" opacity="0"/>
    <g id="Icon-2" data-name="Icon" transform="translate(3.359 2.845)">
      <path id="Path" d="M30,37.917H6.667a4.589,4.589,0,0,1-4.584-4.584V10A4.589,4.589,0,0,1,6.667,5.417H18.333a1.25,1.25,0,0,1,0,2.5H6.667A2.086,2.086,0,0,0,4.583,10V33.333a2.086,2.086,0,0,0,2.084,2.084H30a2.086,2.086,0,0,0,2.083-2.084V21.667a1.25,1.25,0,0,1,2.5,0V33.333A4.589,4.589,0,0,1,30,37.917Z" transform="translate(-3.359 -2.845)" fill="#fff"/>
      <path id="Path-2" data-name="Path" d="M33.333,1.881a4.786,4.786,0,0,1,3.384,8.17L20.884,25.884a1.25,1.25,0,0,1-.581.329L13.636,27.88a1.25,1.25,0,0,1-1.516-1.516L13.787,19.7a1.25,1.25,0,0,1,.329-.581L29.949,3.283A4.755,4.755,0,0,1,33.333,1.881ZM19.361,23.871,34.949,8.283a2.286,2.286,0,1,0-3.232-3.232L16.129,20.639l-1.078,4.31Z" transform="translate(-3.359 -2.845)" fill="#fff"/>
    </g>
  </g>
</svg>
