<svg xmlns="http://www.w3.org/2000/svg" width="40" height="40" viewBox="0 0 40 40">
  <g id="Icon" transform="translate(0 0.207)">
    <rect id="Area" width="40" height="40" transform="translate(0 -0.207)" fill="#fff" opacity="0"/>
    <g id="Icon-2" data-name="Icon" transform="translate(3.359 2.845)">
      <path id="Path" d="M38.333,10.417a1.25,1.25,0,0,1,1.25,1.25V28.333a1.25,1.25,0,0,1-1.977,1.017L25.94,21.017a1.25,1.25,0,0,1,0-2.034L37.606,10.65A1.249,1.249,0,0,1,38.333,10.417ZM37.083,25.9V14.1L28.818,20Z" transform="translate(-3.359 -2.845)" fill="#fff"/>
      <path id="Rect" d="M2-1.25H23A3.254,3.254,0,0,1,26.25,2V21.333A3.254,3.254,0,0,1,23,24.583H2a3.254,3.254,0,0,1-3.25-3.25V2A3.254,3.254,0,0,1,2-1.25ZM23,22.083a.751.751,0,0,0,.75-.75V2A.751.751,0,0,0,23,1.25H2A.751.751,0,0,0,1.25,2V21.333a.751.751,0,0,0,.75.75Z" transform="translate(-1.692 5.489)" fill="#fff"/>
    </g>
  </g>
</svg>
