<svg xmlns="http://www.w3.org/2000/svg" width="40" height="40" viewBox="0 0 40 40">
  <g id="Icon" transform="translate(0 0.207)">
    <rect id="Area" width="40" height="40" transform="translate(0 -0.207)" fill="#fff" opacity="0"/>
    <g id="Icon-2" data-name="Icon" transform="translate(3.359 2.845)">
      <path id="Rect" d="M2-1.25H32A3.254,3.254,0,0,1,35.25,2V32A3.254,3.254,0,0,1,32,35.25H2A3.254,3.254,0,0,1-1.25,32V2A3.254,3.254,0,0,1,2-1.25Zm30,34a.751.751,0,0,0,.75-.75V2A.751.751,0,0,0,32,1.25H2A.751.751,0,0,0,1.25,2V32a.751.751,0,0,0,.75.75Z" transform="translate(-0.359 -0.052)" fill="#fff"/>
      <path id="Line" d="M0,35.25A1.25,1.25,0,0,1-1.25,34V0A1.25,1.25,0,0,1,0-1.25,1.25,1.25,0,0,1,1.25,0V34A1.25,1.25,0,0,1,0,35.25Z" transform="translate(8.641 -0.052)" fill="#fff"/>
      <path id="Line-2" data-name="Line" d="M0,35.25A1.25,1.25,0,0,1-1.25,34V0A1.25,1.25,0,0,1,0-1.25,1.25,1.25,0,0,1,1.25,0V34A1.25,1.25,0,0,1,0,35.25Z" transform="translate(24.641 -0.052)" fill="#fff"/>
      <path id="Line-3" data-name="Line" d="M34,1.25H0A1.25,1.25,0,0,1-1.25,0,1.25,1.25,0,0,1,0-1.25H34A1.25,1.25,0,0,1,35.25,0,1.25,1.25,0,0,1,34,1.25Z" transform="translate(-0.359 16.948)" fill="#fff"/>
      <path id="Line-4" data-name="Line" d="M9,1.25H0A1.25,1.25,0,0,1-1.25,0,1.25,1.25,0,0,1,0-1.25H9A1.25,1.25,0,0,1,10.25,0,1.25,1.25,0,0,1,9,1.25Z" transform="translate(-0.359 8.948)" fill="#fff"/>
      <path id="Line-5" data-name="Line" d="M9,1.25H0A1.25,1.25,0,0,1-1.25,0,1.25,1.25,0,0,1,0-1.25H9A1.25,1.25,0,0,1,10.25,0,1.25,1.25,0,0,1,9,1.25Z" transform="translate(-0.359 24.948)" fill="#fff"/>
      <path id="Line-6" data-name="Line" d="M9,1.25H0A1.25,1.25,0,0,1-1.25,0,1.25,1.25,0,0,1,0-1.25H9A1.25,1.25,0,0,1,10.25,0,1.25,1.25,0,0,1,9,1.25Z" transform="translate(24.641 24.948)" fill="#fff"/>
      <path id="Line-7" data-name="Line" d="M9,1.25H0A1.25,1.25,0,0,1-1.25,0,1.25,1.25,0,0,1,0-1.25H9A1.25,1.25,0,0,1,10.25,0,1.25,1.25,0,0,1,9,1.25Z" transform="translate(24.641 8.948)" fill="#fff"/>
    </g>
  </g>
</svg>
