<svg xmlns="http://www.w3.org/2000/svg" width="40" height="40" viewBox="0 0 40 40">
  <g id="Icon" transform="translate(0 0.207)">
    <rect id="Area" width="40" height="40" transform="translate(0 -0.207)" fill="#fff" opacity="0"/>
    <g id="Icon-2" data-name="Icon" transform="translate(3.359 2.845)">
      <path id="Path" d="M30.5,37.917H6.667a4.589,4.589,0,0,1-4.584-4.584V21.667a4.589,4.589,0,0,1,4.584-4.584h4.188L17.191,2.825a1.25,1.25,0,0,1,1.142-.742,6.257,6.257,0,0,1,6.25,6.25V13.75h8.178a4.583,4.583,0,0,1,4.575,5.271l-2.3,15A4.584,4.584,0,0,1,30.5,37.917Zm-17.586-2.5H30.5a2.093,2.093,0,0,0,2.061-1.771l2.3-15a2.083,2.083,0,0,0-2.083-2.394H23.333A1.25,1.25,0,0,1,22.083,15V8.333a3.757,3.757,0,0,0-2.974-3.669L12.917,18.6ZM6.667,19.583a2.086,2.086,0,0,0-2.084,2.084V33.333a2.086,2.086,0,0,0,2.084,2.084h3.75V19.583Z" transform="translate(-3.359 -2.845)" fill="#fff"/>
    </g>
  </g>
</svg>
